<?xml version="1.0" encoding="UTF-8" standalone="no"?>
<!-- Created with Inkscape (http://www.inkscape.org/) -->

<svg
   xmlns:dc="http://purl.org/dc/elements/1.1/"
   xmlns:cc="http://creativecommons.org/ns#"
   xmlns:rdf="http://www.w3.org/1999/02/22-rdf-syntax-ns#"
   xmlns:svg="http://www.w3.org/2000/svg"
   xmlns="http://www.w3.org/2000/svg"
   xmlns:sodipodi="http://sodipodi.sourceforge.net/DTD/sodipodi-0.dtd"
   xmlns:inkscape="http://www.inkscape.org/namespaces/inkscape"
   width="210mm"
   height="297mm"
   viewBox="0 0 210 297"
   version="1.1"
   id="svg8"
   sodipodi:docname="Kiełczewski_naklejka.svg"
   inkscape:version="0.92.3 (2405546, 2018-03-11)">
  <defs
     id="defs2">
    <filter
       inkscape:collect="always"
       style="color-interpolation-filters:sRGB"
       id="filter938"
       x="-0.036064125"
       width="1.0721282"
       y="-0.035936103"
       height="1.0718722">
      <feGaussianBlur
         inkscape:collect="always"
         stdDeviation="9.0239274"
         id="feGaussianBlur940" />
    </filter>
    <filter
       inkscape:collect="always"
       style="color-interpolation-filters:sRGB"
       id="filter1380"
       x="-0.19195301"
       width="1.383906"
       y="-0.19204701"
       height="1.384094">
      <feGaussianBlur
         inkscape:collect="always"
         stdDeviation="7.5469485"
         id="feGaussianBlur1382" />
    </filter>
    <clipPath
       clipPathUnits="userSpaceOnUse"
       id="clipPath1388">
      <path
         inkscape:connector-curvature="0"
         id="path1390"
         d="m 14.633732,151.93904 a 91.673447,90.337106 0 0 0 7.305497,31.72623 l 5.29e-4,0.002 a 91.673447,90.337106 0 0 0 120.499092,47.1361 91.673447,90.337106 0 0 0 47.83377,-118.7421 91.673447,90.337106 0 0 0 -81.37436,-54.386345 z"
         style="opacity:1;fill:#00ffff;fill-opacity:1;stroke:none;stroke-width:6.41040373;stroke-miterlimit:4;stroke-dasharray:none;stroke-opacity:1" />
    </clipPath>
    <clipPath
       clipPathUnits="userSpaceOnUse"
       id="clipPath1392">
      <path
         inkscape:connector-curvature="0"
         id="path1394"
         d="m 14.633732,151.93904 a 91.673447,90.337106 0 0 0 7.305497,31.72623 l 5.29e-4,0.002 a 91.673447,90.337106 0 0 0 120.499092,47.1361 91.673447,90.337106 0 0 0 47.83377,-118.7421 91.673447,90.337106 0 0 0 -81.37436,-54.386345 z"
         style="opacity:1;fill:#00ffff;fill-opacity:1;stroke:none;stroke-width:6.41040373;stroke-miterlimit:4;stroke-dasharray:none;stroke-opacity:1" />
    </clipPath>
    <clipPath
       clipPathUnits="userSpaceOnUse"
       id="clipPath1396">
      <path
         inkscape:connector-curvature="0"
         id="path1398"
         d="m -1063.9404,725.78069 a 346.48232,341.43158 0 0 0 27.6113,119.91016 l 0,0.006 a 346.48232,341.43158 0 0 0 455.42965,178.15225 346.48232,341.43158 0 0 0 180.78906,-448.78911 346.48232,341.43158 0 0 0 -307.55664,-205.55468 z"
         style="opacity:1;fill:#00ffff;fill-opacity:1;stroke:none;stroke-width:24.22829819;stroke-miterlimit:4;stroke-dasharray:none;stroke-opacity:1" />
    </clipPath>
    <clipPath
       clipPathUnits="userSpaceOnUse"
       id="clipPath1400">
      <path
         inkscape:connector-curvature="0"
         id="path1402"
         d="m 55.308594,574.25781 a 346.48232,341.43158 0 0 0 27.611328,119.91016 l 0.002,0.006 A 346.48232,341.43158 0 0 0 538.35156,872.32617 346.48232,341.43158 0 0 0 719.14062,423.53711 346.48232,341.43158 0 0 0 411.58398,217.98242 Z"
         style="opacity:1;fill:#00ffff;fill-opacity:1;stroke:none;stroke-width:24.22829819;stroke-miterlimit:4;stroke-dasharray:none;stroke-opacity:1" />
    </clipPath>
  </defs>
  <sodipodi:namedview
     id="base"
     pagecolor="#ffffff"
     bordercolor="#666666"
     borderopacity="1.0"
     inkscape:pageopacity="0.0"
     inkscape:pageshadow="2"
     inkscape:zoom="0.49497475"
     inkscape:cx="-31.096146"
     inkscape:cy="380.32579"
     inkscape:document-units="mm"
     inkscape:current-layer="layer1"
     showgrid="false"
     inkscape:window-width="1920"
     inkscape:window-height="1000"
     inkscape:window-x="0"
     inkscape:window-y="0"
     inkscape:window-maximized="1" />
  <metadata
     id="metadata5">
    <rdf:RDF>
      <cc:Work
         rdf:about="">
        <dc:format>image/svg+xml</dc:format>
        <dc:type
           rdf:resource="http://purl.org/dc/dcmitype/StillImage" />
      </cc:Work>
    </rdf:RDF>
  </metadata>
  <g
     inkscape:label="Layer 1"
     inkscape:groupmode="layer"
     id="layer1">
    <path
       style="opacity:1;fill:#00ffff;fill-opacity:1;stroke:none;stroke-width:24.22829819;stroke-miterlimit:4;stroke-dasharray:none;stroke-opacity:1"
       d="m 55.308594,574.25781 a 346.48232,341.43158 0 0 0 27.611328,119.91016 l 0.002,0.006 A 346.48232,341.43158 0 0 0 538.35156,872.32617 346.48232,341.43158 0 0 0 719.14062,423.53711 346.48232,341.43158 0 0 0 411.58398,217.98242 Z"
       id="path819"
       transform="scale(0.26458333)"
       inkscape:connector-curvature="0"
       clip-path="url(#clipPath1400)" />
    <path
       style="opacity:0.4;fill:#2b0000;fill-opacity:1;stroke:none;stroke-width:24.22829819;stroke-miterlimit:4;stroke-dasharray:none;stroke-opacity:1;filter:url(#filter938)"
       d="m -469.97461,475.24023 a 346.48232,341.43157 0 0 1 63.80273,95.77344 346.48232,341.43157 0 0 1 -180.78906,448.78903 346.48232,341.43157 0 0 1 -359.03515,-51.58004 346.48232,341.43157 0 0 0 391.36328,81.89254 346.48232,341.43157 0 0 0 180.78906,-448.78903 346.48232,341.43157 0 0 0 -96.13086,-126.08594 z"
       transform="matrix(0.26458333,0,0,0.26458333,296.13463,-40.090429)"
       id="path821"
       inkscape:connector-curvature="0"
       clip-path="url(#clipPath1396)" />
    <text
       xml:space="preserve"
       style="font-style:italic;font-variant:normal;font-weight:bold;font-stretch:normal;font-size:39.89890671px;line-height:1.25;font-family:sans-serif;-inkscape-font-specification:'sans-serif Bold Italic';letter-spacing:0px;word-spacing:0px;fill:#000000;fill-opacity:1;stroke:none;stroke-width:0.41561356"
       x="134.5675"
       y="67.914963"
       id="text1414"
       transform="matrix(0.61812245,0.33980589,-0.60143147,1.2871722,0,0)"><tspan
         sodipodi:role="line"
         id="tspan1412"
         x="134.5675"
         y="67.914963"
         style="font-style:italic;font-variant:normal;font-weight:bold;font-stretch:normal;font-size:27.13230324px;font-family:sans-serif;-inkscape-font-specification:'sans-serif Bold Italic';stroke-width:0.41561356">Order Janusza</tspan></text>
    <path
       style="opacity:0.63999999;fill:#241c1c;fill-opacity:1;stroke:none;stroke-width:6.41040373;stroke-miterlimit:4;stroke-dasharray:none;stroke-opacity:1;filter:url(#filter1380)"
       d="M 108.80283,57.625286 14.538306,151.88982 a 91.673446,90.337104 0 0 0 39.124225,-7.24918 91.673446,90.337104 0 0 0 55.140299,-87.015354 z"
       id="path855"
       inkscape:connector-curvature="0"
       clip-path="url(#clipPath1392)" />
    <path
       inkscape:connector-curvature="0"
       id="path942"
       d="M 108.80283,57.625286 14.538306,151.88982 a 91.673446,90.337104 0 0 0 39.124225,-7.24918 91.673446,90.337104 0 0 0 55.140299,-87.015354 z"
       style="opacity:1;fill:#00ffff;fill-opacity:1;stroke:none;stroke-width:6.41040373;stroke-miterlimit:4;stroke-dasharray:none;stroke-opacity:1"
       clip-path="url(#clipPath1388)" />
  </g>
</svg>
