<?xml version="1.0" encoding="UTF-8" standalone="no"?>
<!-- Created with Inkscape (http://www.inkscape.org/) -->

<svg
   xmlns:dc="http://purl.org/dc/elements/1.1/"
   xmlns:cc="http://creativecommons.org/ns#"
   xmlns:rdf="http://www.w3.org/1999/02/22-rdf-syntax-ns#"
   xmlns:svg="http://www.w3.org/2000/svg"
   xmlns="http://www.w3.org/2000/svg"
   xmlns:xlink="http://www.w3.org/1999/xlink"
   xmlns:sodipodi="http://sodipodi.sourceforge.net/DTD/sodipodi-0.dtd"
   xmlns:inkscape="http://www.inkscape.org/namespaces/inkscape"
   width="210mm"
   height="297mm"
   viewBox="0 0 210 297"
   version="1.1"
   id="svg8"
   inkscape:version="0.92.1 r15371"
   sodipodi:docname="logo.svg">
  <defs
     id="defs2" />
  <sodipodi:namedview
     id="base"
     pagecolor="#ffffff"
     bordercolor="#666666"
     borderopacity="1.0"
     inkscape:pageopacity="0.0"
     inkscape:pageshadow="2"
     inkscape:zoom="0.49497475"
     inkscape:cx="270.00599"
     inkscape:cy="558.25511"
     inkscape:document-units="mm"
     inkscape:current-layer="layer1"
     showgrid="false"
     inkscape:window-width="1536"
     inkscape:window-height="801"
     inkscape:window-x="-8"
     inkscape:window-y="-8"
     inkscape:window-maximized="1" />
  <metadata
     id="metadata5">
    <rdf:RDF>
      <cc:Work
         rdf:about="">
        <dc:format>image/svg+xml</dc:format>
        <dc:type
           rdf:resource="http://purl.org/dc/dcmitype/StillImage" />
        <dc:title></dc:title>
      </cc:Work>
    </rdf:RDF>
  </metadata>
  <g
     inkscape:label="Layer 1"
     inkscape:groupmode="layer"
     id="layer1">
    <path
       style="fill:#00ffff;fill-opacity:1;stroke:none;stroke-width:1.41736662;stroke-opacity:0.00529103"
       d="M 399.00977,154.79297 A 378.80718,372.74627 0 0 0 30.207031,444.0332 c 15.188152,-12.18524 29.905874,-22.38353 44.152344,-30.58008 39.182605,-22.94845 79.888995,-34.42187 122.119145,-34.42187 47.88985,0 103.83572,19.66955 167.83398,59.00977 l 9.79492,5.90039 c 3.4829,1.96701 8.27212,4.59079 14.36719,7.86914 67.48116,40.65155 121.68336,60.97656 162.60742,60.97656 37.44116,0 74.44715,-12.45758 111.01758,-37.37305 27.87559,-18.76823 57.97659,-46.10212 90.29883,-81.98437 A 378.80718,372.74627 0 0 0 399.00977,154.79297 Z"
       transform="scale(0.26458333)"
       id="path8427"
       inkscape:connector-curvature="0" />
    <path
       style="fill:#0000ff;fill-opacity:1;stroke:none;stroke-width:1.41736662;stroke-opacity:0.00529103"
       d="m 777.23438,539.02734 c -42.81126,47.34261 -82.71609,81.55376 -119.70704,102.59961 -38.74724,22.29279 -79.2347,33.43946 -121.46484,33.43946 -47.88985,0 -103.61679,-19.3428 -167.17969,-58.02735 -4.78898,-2.62268 -8.2724,-4.58905 -10.44922,-5.90039 -3.04753,-1.96701 -7.83675,-4.59079 -14.36718,-7.86914 -67.48116,-40.65155 -121.68337,-60.97656 -162.60743,-60.97656 -38.31188,0 -76.18774,12.78433 -113.628902,38.35547 C 55.527006,588.8356 42.939443,598.62698 30.072266,610 A 378.80718,372.74627 0 0 0 399.00977,900.28516 378.80718,372.74627 0 0 0 777.23438,539.02734 Z"
       transform="scale(0.26458333)"
       id="path8417"
       inkscape:connector-curvature="0" />
    <text
       xml:space="preserve"
       style="font-style:normal;font-weight:normal;font-size:14.41226196px;line-height:1.25;font-family:sans-serif;letter-spacing:0px;word-spacing:0px;fill:#000000;fill-opacity:1;stroke:none;stroke-width:0.26458332"
       id="text8431"
       transform="matrix(0.95251698,-0.10832988,0.1116067,0.99374122,-18.494941,8.7019079)"><textPath
         xlink:href="#path8433"
         id="textPath8435"><tspan
   style="font-size:14.41226196px;stroke:none;stroke-width:0.26458332"
   id="tspan8429">I LO Collegium Gostomianum</tspan></textPath></text>
    <path
       style="fill:none;stroke:none;stroke-width:0.28455353px;stroke-linecap:butt;stroke-linejoin:miter;stroke-opacity:1"
       d="m 16.752911,144.93033 c 29.418839,-29.14842 62.429433,-23.97304 97.772419,-1.75016 53.20354,32.36805 80.7142,23.88801 133.07329,0.54797"
       id="path8433"
       inkscape:connector-curvature="0"
       sodipodi:nodetypes="ccc" />
  </g>
</svg>
