<?xml version="1.0" encoding="UTF-8" standalone="no"?>
<!-- Created with Inkscape (http://www.inkscape.org/) -->

<svg
   xmlns:dc="http://purl.org/dc/elements/1.1/"
   xmlns:cc="http://creativecommons.org/ns#"
   xmlns:rdf="http://www.w3.org/1999/02/22-rdf-syntax-ns#"
   xmlns:svg="http://www.w3.org/2000/svg"
   xmlns="http://www.w3.org/2000/svg"
   xmlns:sodipodi="http://sodipodi.sourceforge.net/DTD/sodipodi-0.dtd"
   xmlns:inkscape="http://www.inkscape.org/namespaces/inkscape"
   width="210mm"
   height="297mm"
   viewBox="0 0 210 297"
   version="1.1"
   id="svg8"
   inkscape:version="0.92.3 (2405546, 2018-03-11)"
   sodipodi:docname="logo.svg">
  <defs
     id="defs2" />
  <sodipodi:namedview
     id="base"
     pagecolor="#ffffff"
     bordercolor="#666666"
     borderopacity="1.0"
     inkscape:pageopacity="0.0"
     inkscape:pageshadow="2"
     inkscape:zoom="0.49497475"
     inkscape:cx="-133.27046"
     inkscape:cy="630.42953"
     inkscape:document-units="mm"
     inkscape:current-layer="layer1"
     showgrid="false"
     inkscape:window-width="1920"
     inkscape:window-height="1000"
     inkscape:window-x="0"
     inkscape:window-y="0"
     inkscape:window-maximized="1" />
  <metadata
     id="metadata5">
    <rdf:RDF>
      <cc:Work
         rdf:about="">
        <dc:format>image/svg+xml</dc:format>
        <dc:type
           rdf:resource="http://purl.org/dc/dcmitype/StillImage" />
        <dc:title></dc:title>
      </cc:Work>
    </rdf:RDF>
  </metadata>
  <g
     inkscape:label="Layer 1"
     inkscape:groupmode="layer"
     id="layer1">
    <path
       style="opacity:1;fill:#0098ff;fill-opacity:0.94179891;stroke:#000007;stroke-width:12.5874157;stroke-miterlimit:4;stroke-dasharray:none;stroke-opacity:0.00529103"
       d="M 106.70569,42.739411 A 97.286108,100.67196 0 0 0 68.879573,50.983354 97.286108,100.67196 0 0 0 10.316224,146.99196 c 9.402942,-9.31791 18.183498,-16.17468 26.336377,-20.55172 9.666576,-5.28296 19.708939,-7.92406 30.12736,-7.92406 11.814704,0 25.616482,4.52819 41.405229,13.5847 l 2.41639,1.35858 c 0.85925,0.45282 2.04079,1.05655 3.54448,1.81125 16.64799,9.3584 30.02021,14.03739 40.11642,14.03739 9.23695,0 18.36637,-2.86782 27.3885,-8.60361 6.52334,-4.0984 13.5431,-9.97936 21.0535,-17.6227 a 97.286108,100.67196 0 0 0 -5.94796,-19.58485 97.286108,100.67196 0 0 0 -90.05083,-60.757529 z"
       id="path860" />
    <path
       style="opacity:1;fill:#0098ff;fill-opacity:0.94179891;stroke:#000007;stroke-width:12.5874157;stroke-miterlimit:4;stroke-dasharray:none;stroke-opacity:0.00529103"
       d="m 63.074244,156.10045 c -9.451763,0 -18.795962,2.94322 -28.032914,8.82995 -5.808642,3.60695 -11.872292,8.55985 -18.190621,14.85284 a 97.286108,100.67196 0 0 0 1.271757,3.5233 l 56.941226,-25.43462 c -4.408381,-1.17874 -8.406296,-1.77147 -11.989448,-1.77147 z"
       id="path858" />
    <path
       style="opacity:1;fill:#0000ff;fill-opacity:1;stroke:#000007;stroke-width:12.5874157;stroke-miterlimit:4;stroke-dasharray:none;stroke-opacity:0.00529103"
       d="m 75.080229,157.87605 -56.946394,25.45788 a 97.286108,100.67196 0 0 0 127.884185,52.49447 97.286108,100.67196 0 0 0 56.96706,-73.53918 c -7.9159,7.36698 -15.40447,12.93239 -22.46168,16.67908 -9.55917,5.13203 -19.54822,7.69772 -29.96664,7.69772 -11.81471,0 -25.56266,-4.45278 -41.244,-13.35835 -1.18147,-0.60377 -2.04058,-1.05617 -2.57761,-1.35806 -0.75185,-0.45282 -1.9334,-1.05655 -3.54449,-1.81126 -10.732273,-6.03297 -20.100983,-10.11853 -28.110431,-12.2623 z"
       id="path815" />
    <flowRoot
       xml:space="preserve"
       id="flowRoot817-3"
       style="font-style:normal;font-weight:normal;font-size:40px;line-height:1.25;font-family:sans-serif;letter-spacing:0px;word-spacing:0px;fill:#000000;fill-opacity:1;stroke:none"
       transform="matrix(8.2488122,0,0,15.19991,11294.109,-5918.9069)"><flowRegion
         id="flowRegion819-6"><rect
           id="rect821-7"
           width="838.42664"
           height="434.3656"
           x="-1410.173"
           y="385.10834" /></flowRegion><flowPara
         id="flowPara823-5">~</flowPara></flowRoot>    <path
       style="opacity:1;fill:#0000ff;fill-opacity:1;stroke:#000007;stroke-width:93.30945587;stroke-miterlimit:4;stroke-dasharray:none;stroke-opacity:0.00529103"
       d="m 66.928964,685.57706 c -1.674714,-7.62493 0.198513,-9.89514 26.276777,-31.84552 57.186279,-48.13436 112.381939,-68.59373 164.929889,-61.13454 9.4399,1.33999 18.14066,3.04807 19.33503,3.79573 1.53858,0.96312 -189.879185,88.52866 -207.462876,94.90551 -0.92829,0.33665 -2.313759,-2.23788 -3.07882,-5.72118 z"
       id="path868"
       inkscape:connector-curvature="0"
       transform="scale(0.26458333)" />
    <path
       style="opacity:1;fill:#0000ff;fill-opacity:1;stroke:#000007;stroke-width:93.30945587;stroke-miterlimit:4;stroke-dasharray:none;stroke-opacity:0.00529103"
       d="M 380.08906,920.71477 C 334.83471,915.5562 307.71905,909.20131 274.1004,895.87506 206.58261,869.11135 146.04799,819.76253 104.18376,757.35621 90.712892,737.27541 69.323936,695.56644 71.435446,693.49622 c 2.540721,-2.49103 205.126374,-92.83903 210.815574,-94.01833 11.15999,-2.31332 53.86352,15.64646 116.3624,48.93844 82.77216,44.09116 122.5506,57.4221 171.34287,57.4221 63.68985,0 121.07146,-24.49043 181.66807,-77.53582 l 13.9413,-12.204 -1.45377,7.74922 c -9.49344,50.60436 -40.31966,115.88841 -75.71552,160.35104 -51.48105,64.66805 -127.6989,112.01657 -208.3022,129.40273 -31.95654,6.89304 -75.04799,9.95806 -100.00511,7.11317 z"
       id="path870"
       inkscape:connector-curvature="0"
       transform="scale(0.26458333)" />
    <path
       style="opacity:1;fill:#0000ff;fill-opacity:1;stroke:#000007;stroke-width:93.30945587;stroke-miterlimit:4;stroke-dasharray:none;stroke-opacity:0.00529103"
       d="m 67.951927,683.6015 c 0,-7.13627 3.651222,-11.14759 29.294424,-32.18358 29.649809,-24.32275 57.457209,-40.45596 87.883269,-50.98784 18.60028,-6.43843 20.20347,-6.64472 51.92184,-6.68107 20.88009,-0.0239 33.52238,0.75592 34.92055,2.15409 1.57525,1.57527 -13.59471,9.47238 -53.94215,28.08096 -78.55863,36.23191 -139.523919,63.48108 -145.234649,64.91438 -4.36059,1.09444 -4.843284,0.56653 -4.843284,-5.29694 z"
       id="path872"
       inkscape:connector-curvature="0"
       transform="scale(0.26458333)" />
    <path
       style="opacity:1;fill:#0000ff;fill-opacity:1;stroke:#000007;stroke-width:93.30945587;stroke-miterlimit:4;stroke-dasharray:none;stroke-opacity:0.00529103"
       d="m 368.97739,919.76036 c -25.10205,-2.86021 -48.20046,-7.9358 -73.3091,-16.10878 C 203.36553,873.60661 125.45283,805.83539 80.23565,716.26067 68.737791,693.48354 68.758822,694.42712 79.622927,688.77106 c 10.767801,-5.60592 10.643098,-6.67599 -0.247705,-2.12552 -10.182582,4.25455 -11.423295,3.8838 -11.423295,-3.41349 0,-5.16964 2.097484,-8.40169 10.606602,-16.34392 31.395491,-29.30388 74.607131,-56.11011 108.591401,-67.36439 15.941,-5.27905 19.51985,-5.6914 49.90153,-5.74957 20.92848,-0.0401 33.51973,0.72813 34.92225,2.13063 2.28109,2.28108 -20.53002,13.41987 -117.65182,57.45005 -25.27801,11.45979 -45.67936,21.11663 -45.33634,21.45966 0.34303,0.34302 39.20778,-16.61504 86.36612,-37.68459 47.15835,-21.06954 87.8277,-38.32163 90.37636,-38.33796 6.41834,-0.0411 39.99268,12.76621 63.0463,24.04979 10.5561,5.16667 42.3759,21.24648 70.71068,35.73292 76.58924,39.157 109.75538,48.7851 160.61426,46.62619 58.88343,-2.49953 108.73922,-24.23143 165.95923,-72.34078 10.39427,-8.73928 18.89868,-14.71785 18.89868,-13.28569 0,5.7135 -10.50112,42.51785 -16.96177,59.44761 -24.48499,64.16162 -64.35827,119.88747 -115.22606,161.03694 -75.03939,60.70305 -172.38944,90.11615 -263.79196,79.70142 z M 100.27681,679.57447 c 3.88909,-2.12919 6.16193,-3.87125 5.05076,-3.87125 -1.11117,0 -5.20228,1.74206 -9.091372,3.87125 -3.889087,2.12918 -6.16193,3.87124 -5.050762,3.87124 1.111167,0 5.202285,-1.74206 9.091374,-3.87124 z"
       id="path874"
       inkscape:connector-curvature="0"
       transform="scale(0.26458333)" />
    <path
       style="opacity:1;fill:#0000ff;fill-opacity:1;stroke:#000007;stroke-width:93.30945587;stroke-miterlimit:4;stroke-dasharray:none;stroke-opacity:0.00529103"
       d="m 362.16678,918.87874 c -79.65504,-10.84823 -147.6187,-43.56148 -204.67616,-98.51766 -32.45669,-31.2614 -55.07723,-61.18594 -74.114341,-98.0453 -14.796541,-28.64883 -14.67106,-27.87067 -5.26787,-32.66782 4.414445,-2.25208 8.026264,-4.55414 8.026264,-5.11567 0,-0.56154 -2.682264,0.36608 -5.960587,2.06136 -9.31667,4.81784 -12.222159,4.01871 -12.222159,-3.3616 0,-5.16964 2.097484,-8.40169 10.606602,-16.34392 31.309311,-29.22345 74.333981,-55.93566 108.591401,-67.41983 16.0643,-5.38526 19.28486,-5.7568 49.90153,-5.7568 21.27612,0 33.51321,0.78427 34.97015,2.2412 1.6414,1.64141 -11.55125,8.65233 -49.29528,26.1968 -28.34506,13.17557 -51.28609,24.20597 -50.98006,24.512 0.30603,0.30603 25.03449,-10.33376 54.95213,-23.64397 29.91764,-13.31021 56.48097,-24.21273 59.02963,-24.22782 12.45053,-0.0737 50.00515,16.73122 133.75698,59.85361 43.18792,22.23672 72.1272,34.20536 100.0051,41.35986 15.10651,3.8769 23.48072,4.67411 49.49748,4.71208 32.92325,0.0481 44.55082,-1.62461 71.72083,-10.31731 34.28842,-10.97014 67.75873,-30.5367 104.55079,-61.11984 10.83388,-9.00558 19.69797,-15.10046 19.69797,-13.54416 0,5.96714 -10.48397,42.80032 -16.94036,59.51627 -38.17514,98.83765 -109.25274,173.69295 -202.91308,213.6977 -58.34885,24.92232 -123.02593,34.09012 -182.93696,25.93082 z M 98.256503,680.58462 c 2.777917,-1.588 4.141627,-2.88728 3.030457,-2.88728 -1.11117,0 -4.293147,1.29928 -7.071067,2.88728 -2.777919,1.588 -4.141625,2.88728 -3.030457,2.88728 1.111167,0 4.293148,-1.29928 7.071067,-2.88728 z m 20.203047,-9.09137 c 1.66676,-1.07714 2.12132,-1.95843 1.01016,-1.95843 -1.11117,0 -3.38401,0.88129 -5.05077,1.95843 -1.66675,1.07714 -2.12132,1.95843 -1.01015,1.95843 1.11117,0 3.38401,-0.88129 5.05076,-1.95843 z m 20.20306,-9.09138 c 2.77791,-1.588 4.14162,-2.88727 3.03045,-2.88727 -1.11116,0 -4.29315,1.29927 -7.07106,2.88727 -2.77792,1.58801 -4.14163,2.88728 -3.03046,2.88728 1.11117,0 4.29315,-1.29927 7.07107,-2.88728 z m 20.20305,-9.09137 c 3.88908,-2.12918 6.16193,-3.87124 5.05076,-3.87124 -1.11117,0 -5.20229,1.74206 -9.09137,3.87124 -3.88909,2.12919 -6.16193,3.87125 -5.05077,3.87125 1.11117,0 5.20229,-1.74206 9.09138,-3.87125 z"
       id="path876"
       inkscape:connector-curvature="0"
       transform="scale(0.26458333)" />
    <path
       style="opacity:1;fill:#0000ff;fill-opacity:1;stroke:#000007;stroke-width:93.30945587;stroke-miterlimit:4;stroke-dasharray:none;stroke-opacity:0.00529103"
       d="M 374.02815,920.73103 C 290.00107,911.54976 215.83773,876.9612 156.10314,819.09439 123.85504,787.85463 100.29284,756.1041 81.153216,718.09789 68.884856,693.73618 68.964676,694.3779 77.605574,689.57625 c 4.13542,-2.29801 5.700672,-3.55332 3.478336,-2.78957 -11.819838,4.06207 -13.131983,3.72524 -13.131983,-3.37101 0,-5.65754 2.014325,-8.60492 12.626907,-18.4758 36.237776,-33.70514 85.566786,-61.94923 121.459996,-69.54381 16.37972,-3.46576 66.36078,-3.06536 69.98678,0.56065 2.02518,2.02517 -23.55097,15.2152 -68.30961,35.2284 -8.05051,3.59968 -14.33296,6.84919 -13.961,7.22115 0.37196,0.37197 21.07543,-8.3892 46.0077,-19.46925 24.93228,-11.08005 47.21773,-20.15211 49.52324,-20.16014 12.43147,-0.0433 44.92205,14.16895 126.11785,55.16732 92.60147,46.75745 126.47405,56.04284 182.44074,50.01193 52.14143,-5.61871 99.57777,-27.80742 151.65663,-70.93855 15.0024,-12.42481 19.45602,-15.22066 19.45602,-12.21387 0,7.76409 -13.9893,52.20696 -23.25888,73.8916 -30.17491,70.58914 -78.25803,128.10672 -141.39598,169.13948 -41.04113,26.67225 -85.21803,43.84848 -137.38075,53.41442 -16.01385,2.93671 -73.33449,5.1819 -88.89342,3.48183 z M 99.252354,679.59761 c 0.707792,-1.14523 -0.103152,-1.48393 -1.901072,-0.794 -3.500011,1.34308 -4.140387,2.79116 -1.234316,2.79116 1.045591,0 2.456515,-0.89872 3.135388,-1.99716 z M 158.86566,653.3105 c 1.66675,-1.07714 2.12132,-1.95843 1.01015,-1.95843 -1.11117,0 -3.38401,0.88129 -5.05076,1.95843 -1.66676,1.07714 -2.12132,1.95843 -1.01016,1.95843 1.11117,0 3.38401,-0.88129 5.05077,-1.95843 z"
       id="path878"
       inkscape:connector-curvature="0"
       transform="scale(0.26458333)" />
    <path
       style="opacity:1;fill:#0000ff;fill-opacity:1;stroke:#000007;stroke-width:93.30945587;stroke-miterlimit:4;stroke-dasharray:none;stroke-opacity:0.00529103"
       d="M 360.89617,919.09461 C 293.76131,909.3634 232.48887,883.14813 182.09916,842.59664 159.57984,824.47406 126.07158,789.10136 109.89863,766.37877 102.4122,755.86052 90.292946,735.49502 82.966958,721.12208 l -13.319977,-26.13261 4.587202,-3.46013 4.587202,-3.46013 -5.434729,1.03891 c -4.806894,0.9189 -5.434729,0.41289 -5.434729,-4.38019 0,-8.41654 2.634797,-11.73295 22.701106,-28.57382 35.292647,-29.61974 74.435557,-51.51991 106.638137,-59.66326 13.67311,-3.45764 21.26246,-4.05027 44.49001,-3.47406 16.56886,0.41102 28.9023,1.5934 30.20275,2.89547 1.58485,1.58686 -6.53217,6.35755 -29.09823,17.10218 -17.21293,8.19577 -31.06689,15.13075 -30.78658,15.41106 0.2803,0.2803 15.91885,-6.31693 34.75232,-14.66051 28.05315,-12.42808 35.62388,-15.00561 41.88393,-14.2598 13.70199,1.63242 44.19929,14.94532 108.74133,47.46856 97.21377,48.98678 121.83595,57.34998 169.49058,57.5694 64.94948,0.29905 113.06446,-18.83999 176.40173,-70.16857 15.36529,-12.45203 21.5867,-16.46649 21.58308,-13.92678 -0.002,1.96255 -2.20375,11.75051 -4.891,21.75102 -26.1998,97.50177 -86.32058,177.62393 -172.21224,229.50494 -34.09139,20.59219 -80.97522,37.96766 -121.89682,45.17582 -26.18663,4.61266 -80.59979,5.75993 -105.05586,2.21503 z M 159.92927,651.68037 c -0.62203,-0.62202 -2.25223,-0.001 -3.62267,1.37944 -1.98044,1.99528 -1.74838,2.22734 1.13096,1.13095 1.99247,-0.75868 3.11374,-1.88836 2.49171,-2.51039 z"
       id="path880"
       inkscape:connector-curvature="0"
       transform="scale(0.26458333)" />
    <path
       style="opacity:1;fill:#0000ff;fill-opacity:1;stroke:#000007;stroke-width:93.30945587;stroke-miterlimit:4;stroke-dasharray:none;stroke-opacity:0.00529103"
       d="M 370.99769,920.75889 C 332.23347,915.91495 287.73777,903.28831 254.83015,887.79374 212.74024,867.9757 180.26309,844.39336 145.73367,808.57654 118.54509,780.37425 100.54552,755.36188 82.997986,721.39843 72.183194,700.46627 70.102687,694.98358 72.07335,692.60908 c 1.957742,-2.35894 1.792609,-2.93309 -0.84359,-2.93309 -4.703293,0 -4.242642,-10.35036 0.742724,-16.68823 5.664545,-7.2013 38.741156,-33.65371 55.578446,-44.44784 18.49768,-11.85858 42.97927,-23.97537 60.60915,-29.99759 12.59897,-4.30369 17.66938,-4.83083 46.46702,-4.83083 44.4261,0 45.44716,0.76736 19.1929,14.4241 -24.66312,12.82907 -23.40701,12.75417 7.01911,-0.4185 21.37272,-9.25308 22.53718,-9.52155 32.32489,-7.45253 15.1332,3.19901 49.25494,18.36253 99.04689,44.01592 103.86706,53.51352 138.89337,64.00921 197.85181,59.28664 53.96538,-4.32263 97.75069,-24.17022 154.14686,-69.87372 13.35579,-10.82355 20.74762,-15.66254 20.74762,-13.58222 0,1.77742 -1.82138,10.36534 -4.04752,19.08426 -36.58063,143.2722 -152.55711,252.45551 -294.95763,277.68088 -18.51694,3.28017 -79.74136,5.78355 -94.95434,3.88256 z M 223.51542,624.01608 c 2.77792,-1.588 4.14162,-2.88728 3.03046,-2.88728 -1.11117,0 -4.29315,1.29928 -7.07107,2.88728 -2.77792,1.588 -4.14163,2.88727 -3.03046,2.88727 1.11117,0 4.29315,-1.29927 7.07107,-2.88727 z"
       id="path882"
       inkscape:connector-curvature="0"
       transform="scale(0.26458333)" />
    <path
       style="opacity:1;fill:#0000ff;fill-opacity:1;stroke:#000007;stroke-width:93.30945587;stroke-miterlimit:4;stroke-dasharray:none;stroke-opacity:0.00529103"
       d="M 369.98754,920.63194 C 326.89791,915.13119 285.27897,902.58017 246.74893,883.46689 211.70994,866.0854 186.714,848.4585 158.1614,820.99582 122.38245,786.58263 101.03359,757.90247 80.208228,716.27311 c -8.290167,-16.57182 -9.955887,-21.46985 -8.073009,-23.73858 1.879573,-2.26475 1.691487,-2.85854 -0.905459,-2.85854 -2.34791,0 -3.277833,-1.85371 -3.277833,-6.53404 0,-5.46195 2.237555,-8.62381 13.637059,-19.27035 28.573674,-26.68633 73.067994,-53.97273 106.571094,-65.35534 12.56821,-4.27002 17.73968,-4.80476 46.46702,-4.80476 43.83054,0 45.27235,0.89771 21.2132,13.20793 -10.55609,5.40118 -18.64254,9.86651 -17.96988,9.92295 0.67266,0.0564 10.67317,-4.05762 22.22336,-9.14236 17.47844,-7.69454 22.41212,-9.06017 29.41856,-8.14291 13.77196,1.80298 42.75461,14.39312 103.43481,44.93235 63.50973,31.96326 91.33394,44.27256 118.46174,52.40689 24.19546,7.25506 72.97306,9.21362 100.56045,4.03778 45.4245,-8.52235 83.7967,-28.1547 133.15354,-68.1253 l 20.39039,-16.51274 -1.47353,9.92091 c -2.09318,14.09257 -17.30852,59.2602 -27.00376,80.16224 -54.86369,118.28079 -166.6347,199.51273 -293.73276,213.47646 -18.51333,2.03398 -60.02078,2.47344 -73.31568,0.77624 z"
       id="path884"
       inkscape:connector-curvature="0"
       transform="scale(0.26458333)" />
    <path
       style="opacity:1;fill:#0000ff;fill-opacity:1;stroke:#000007;stroke-width:93.30945587;stroke-miterlimit:4;stroke-dasharray:none;stroke-opacity:0.00529103"
       d="M 368.97739,920.67968 C 279.41463,906.82792 216.44148,877.05121 158.1614,820.99582 122.38245,786.58263 101.03359,757.90247 80.208228,716.27311 c -8.290167,-16.57182 -9.955887,-21.46985 -8.073009,-23.73858 1.879573,-2.26475 1.691487,-2.85854 -0.905459,-2.85854 -2.349177,0 -3.277833,-1.85466 -3.277833,-6.54631 0,-5.43851 2.215807,-8.63511 13.093769,-18.88952 27.844824,-26.24871 73.651174,-54.35484 107.114384,-65.7239 12.56821,-4.27002 17.73968,-4.80476 46.46702,-4.80476 42.59142,0 44.95518,1.0805 24.74873,11.31297 -8.61155,4.36086 -15.65736,8.33792 -15.65736,8.83791 0,0.49999 7.50038,-2.38873 16.66752,-6.41938 9.16713,-4.03065 19.90176,-7.71152 23.85475,-8.17971 10.94842,-1.29673 32.75201,7.83933 117.06153,49.05065 101.45085,49.59019 119.44651,55.5194 168.41358,55.48893 63.4898,-0.0395 109.87472,-18.7725 174.84385,-70.61238 l 21.01875,-16.7712 -1.25186,9.13333 c -2.10025,15.32298 -18.80957,63.11329 -30.41879,87.00076 -30.13083,61.99804 -74.82584,112.82245 -132.59533,150.77925 -46.70392,30.68629 -102.91737,50.82726 -158.07819,56.63853 -17.9702,1.89316 -63.77147,2.33018 -74.25689,0.70852 z"
       id="path886"
       inkscape:connector-curvature="0"
       transform="scale(0.26458333)" />
    <path
       style="opacity:1;fill:#0000ff;fill-opacity:1;stroke:#000007;stroke-width:93.30945587;stroke-miterlimit:4;stroke-dasharray:none;stroke-opacity:0.00529103"
       d="m 356.29254,918.8596 c -64.5993,-10.05334 -127.28847,-37.68483 -176.236,-77.67949 -24.43455,-19.96528 -58.33611,-56.98699 -74.51167,-81.36938 -18.248675,-27.50733 -36.132605,-62.2841 -34.379247,-66.85328 0.694771,-1.81054 0.256722,-3.28146 -0.977241,-3.28146 -1.23005,0 -2.236455,-2.99269 -2.236455,-6.65042 0,-5.19806 1.87514,-8.43122 8.586297,-14.80471 31.485136,-29.901 74.227906,-56.86339 110.611706,-69.77453 11.74879,-4.16917 16.7919,-4.66395 47.87916,-4.69742 20.94124,-0.0226 35.56552,0.78012 36.80683,2.02018 1.39866,1.39725 -0.84931,3.60078 -7.00455,6.86613 -12.66732,6.72 -9.98453,7.33991 4.33543,1.00179 20.68671,-9.15608 24.65863,-7.83549 128.09486,42.58936 110.88406,54.05564 118.73169,56.60397 173.74623,56.41985 33.86359,-0.11334 39.25282,-0.62939 57.35253,-5.49189 40.99625,-11.01365 80.27262,-33.99565 133.36365,-78.03581 3.70483,-3.07324 3.79221,-2.83964 2.5198,6.73534 -0.72496,5.45546 -5.42856,22.2745 -10.45243,37.37565 -42.7865,128.61113 -142.59836,220.66126 -271.67697,250.55042 -36.14479,8.36962 -90.56454,10.56664 -125.82193,5.07967 z"
       id="path888"
       inkscape:connector-curvature="0"
       transform="scale(0.26458333)" />
    <path
       style="opacity:1;fill:#0000ff;fill-opacity:1;stroke:#000007;stroke-width:93.30945587;stroke-miterlimit:4;stroke-dasharray:none;stroke-opacity:0.00529103"
       d="M 351.80479,918.09001 C 295.86305,908.14803 250.48254,890.02092 204.12953,859.10151 178.71731,842.15048 132.13177,797.41648 113.95245,772.5085 93.678642,744.73082 68.627594,698.11443 70.854897,692.31017 c 0.555955,-1.4488 0.130222,-2.63418 -0.946072,-2.63418 -1.076294,0 -1.956898,-2.99269 -1.956898,-6.65042 0,-5.19806 1.87514,-8.43122 8.586297,-14.80471 31.768026,-30.16965 74.065366,-56.84306 110.611706,-69.75358 11.62832,-4.10788 16.94897,-4.64575 46.46701,-4.69742 18.33427,-0.0321 35.10503,0.66365 37.26835,1.5461 3.50222,1.42862 3.05939,2.14132 -4.04061,6.50294 -9.75996,5.99566 -8.33338,6.33408 4.14791,0.98397 5.18451,-2.22233 12.02421,-4.04061 15.19938,-4.04061 10.6625,0 34.90736,10.27211 105.00877,44.49029 113.91921,55.6067 125.99413,59.60113 179.80715,59.48102 34.98207,-0.0781 46.36641,-1.72661 72.73099,-10.53193 32.90477,-10.98964 65.63395,-30.85077 110.94639,-67.32591 l 10.9413,-8.80741 -1.35041,9.85228 c -1.95281,14.24726 -18.09418,61.28293 -28.75852,83.80182 -42.64531,90.05014 -122.08641,161.70169 -213.93481,192.95759 -53.64973,18.25693 -119.91541,24.27156 -169.77804,15.41 z"
       id="path890"
       inkscape:connector-curvature="0"
       transform="scale(0.26458333)" />
    <path
       style="opacity:1;fill:#0000ff;fill-opacity:1;stroke:#000007;stroke-width:93.30945587;stroke-miterlimit:4;stroke-dasharray:none;stroke-opacity:0.00529103"
       d="M 351.80479,918.05041 C 294.3497,907.72694 251.21114,890.50693 204.12953,859.10151 178.68642,842.12987 132.13598,797.41783 113.88001,772.41616 89.766278,739.39226 67.951927,696.38237 67.951927,681.86286 c 0,-14.3361 64.651103,-61.80312 107.586413,-78.99024 21.83566,-8.74088 34.60244,-10.64348 66.09499,-9.84997 32.27169,0.81314 36.29491,2.26419 25.08755,9.04827 -9.6197,5.82303 -8.18057,6.06962 4.27171,0.73195 5.18451,-2.22233 12.02421,-4.04061 15.19938,-4.04061 10.56448,0 34.6944,10.17628 102.98847,43.43314 102.73924,50.03049 119.33043,56.35813 157.31453,59.99738 33.01188,3.16287 66.92331,-0.21502 94.3736,-9.40046 38.25423,-12.80066 66.81822,-29.97208 115.83904,-69.63738 l 8.92304,-7.22008 -1.35245,9.919 c -2.01014,14.7427 -18.33861,61.99567 -29.38431,85.03534 -18.51787,38.62552 -38.85172,67.79887 -68.81278,98.72701 -48.91854,50.49751 -103.54547,82.92777 -169.2291,100.46594 -45.46153,12.13868 -103.9534,15.35197 -145.04722,7.96826 z"
       id="path892"
       inkscape:connector-curvature="0"
       transform="scale(0.26458333)" />
    <path
       style="opacity:1;fill:#0000ff;fill-opacity:1;stroke:#000007;stroke-width:93.30945587;stroke-miterlimit:4;stroke-dasharray:none;stroke-opacity:0.00529103"
       d="M 365.94693,920.61739 C 305.04574,912.69662 242.56006,887.71759 193.21084,851.5651 173.44965,837.08834 135.48193,800.02954 119.44648,779.56662 95.043942,748.42638 70.733212,703.7696 68.661742,686.27927 l -1.170567,-9.88361 12.857283,-11.91551 c 36.115112,-33.46974 88.306452,-63.56899 120.967272,-69.76298 14.03274,-2.66126 60.83772,-2.58803 67.92426,0.10627 l 5.58152,2.12209 -5.95507,3.92551 c -7.15337,4.71542 -5.94179,5.00662 3.83484,0.92168 16.29542,-6.80866 26.81814,-3.18491 114.91906,39.57509 105.59027,51.24852 121.3136,57.23234 158.92703,60.48284 72.85168,6.29573 127.02174,-12.70052 198.31265,-69.54388 22.61598,-18.03271 23.31791,-17.4418 14.83857,12.4914 -20.14002,71.09687 -52.78324,125.78836 -105.16555,176.19765 -56.58201,54.45082 -125.46995,87.82814 -202.40949,98.07064 -19.48865,2.5944 -71.0225,3.52186 -86.17662,1.55093 z"
       id="path894"
       inkscape:connector-curvature="0"
       transform="scale(0.26458333)" />
    <path
       style="opacity:1;fill:#0000ff;fill-opacity:1;stroke:#000007;stroke-width:93.30945587;stroke-miterlimit:4;stroke-dasharray:none;stroke-opacity:0.00529103"
       d="M 354.83525,919.16879 C 288.9233,907.45573 230.07422,881.62124 183.10932,843.78188 162.2788,826.99884 123.86306,786.80886 110.07983,767.37951 87.147573,735.05336 67.951927,696.0746 67.951927,681.83441 c 0,-15.28883 69.014423,-64.97334 112.868013,-81.25534 16.33241,-6.06392 19.49746,-6.53219 49.76655,-7.36305 21.46741,-0.58925 34.3251,-0.11192 38.27995,1.42112 l 5.95507,2.30839 -5.95507,3.92551 c -7.15337,4.71542 -5.94179,5.00662 3.83484,0.92168 16.15737,-6.75098 26.87511,-3.11271 111.42839,37.82588 109.99311,53.2559 126.58737,59.49486 164.98222,62.02854 43.78757,2.88954 78.35503,-2.27468 112.20441,-16.76282 26.5324,-11.35634 48.02914,-25.40067 98.83658,-64.57228 4.7545,-3.66565 4.8043,-3.65358 4.8043,1.16485 0,7.40332 -10.99153,44.81172 -18.9405,64.46181 -21.93924,54.23445 -48.97949,94.15392 -91.48364,135.05712 -28.53913,27.46419 -53.53832,45.14287 -88.57591,62.63825 -31.80344,15.88047 -60.76603,25.95244 -93.17936,32.40382 -27.94064,5.56115 -94.34715,7.32398 -117.94252,3.1309 z"
       id="path896"
       inkscape:connector-curvature="0"
       transform="scale(0.26458333)" />
    <path
       style="opacity:1;fill:#0000ff;fill-opacity:1;stroke:#000007;stroke-width:93.30945587;stroke-miterlimit:4;stroke-dasharray:none;stroke-opacity:0.00529103"
       d="M 349.78449,918.24093 C 288.24876,906.95669 232.89957,882.58208 186.13977,846.17527 167.04241,831.30621 127.46598,791.09797 113.63054,772.5085 91.899159,743.30992 70.497832,702.09242 68.669375,685.91635 67.632852,676.7464 67.842711,676.31849 78.387553,666.10047 104.48639,640.81051 147.79879,613.10087 181.213,600.3166 c 16.92922,-6.47711 17.30559,-6.52308 53.74886,-6.56394 20.18514,-0.0226 37.44516,0.70287 38.35561,1.61225 0.91046,0.90937 -0.6039,3.41504 -3.36522,5.56816 l -5.02058,3.91476 8.02029,-3.25547 c 16.26699,-6.60285 30.4764,-1.52123 129.36046,46.26235 107.34123,51.87032 110.91117,52.9812 169.70563,52.80794 40.13815,-0.11829 43.40708,-0.42067 60.60915,-5.6066 34.54843,-10.41534 72.94297,-31.9617 112.63841,-63.21073 8.05245,-6.33903 15.92229,-12.51213 17.48855,-13.71799 2.40297,-1.85005 2.62904,-0.53801 1.44743,8.40066 -4.25032,32.15305 -35.54624,103.58734 -61.29984,139.9196 -17.67274,24.93204 -64.54785,71.80485 -89.46745,89.46305 -38.73103,27.44505 -92.99218,50.64038 -140.65653,60.12725 -31.62717,6.2949 -94.53466,7.42169 -122.99328,2.20304 z"
       id="path898"
       inkscape:connector-curvature="0"
       transform="scale(0.26458333)" />
    <path
       style="opacity:1;fill:#0000ff;fill-opacity:1;stroke:#000007;stroke-width:93.30945587;stroke-miterlimit:4;stroke-dasharray:none;stroke-opacity:0.00529103"
       d=""
       id="path900"
       inkscape:connector-curvature="0"
       transform="scale(0.26458333)" />
    <path
       style="opacity:1;fill:#0000ff;fill-opacity:1;stroke:#000007;stroke-width:93.30945587;stroke-miterlimit:4;stroke-dasharray:none;stroke-opacity:0.00529103"
       d="M 362.91647,920.56628 C 348.09323,918.89308 309.02233,909.27867 289.41135,902.47843 259.68096,892.16921 217.57058,869.8841 193.11147,851.51585 163.81205,829.51264 122.51408,786.48772 104.29203,758.98229 85.608349,730.78002 70.214657,699.39121 68.669606,686.34567 l -1.194595,-10.08648 14.88567,-13.58698 c 21.620989,-19.73469 48.114499,-37.99504 73.474519,-50.64147 34.93444,-17.42097 38.86396,-18.31924 80.13877,-18.31924 19.63063,0 36.44825,0.75619 37.37246,1.68041 0.92422,0.92423 -0.13637,3.0921 -2.35701,4.81749 -4.03581,3.13579 -4.03581,3.13646 0.004,1.63192 18.1449,-6.75905 27.74424,-3.48079 121.5048,41.49499 119.32492,57.2387 119.86276,57.41034 179.52066,57.28985 40.33143,-0.0815 43.31431,-0.35784 60.40791,-5.59713 39.60884,-12.14035 77.89288,-34.69876 130.33808,-76.80016 2.41576,-1.93929 2.67187,-0.71382 1.65629,7.92523 -3.59144,30.54365 -35.81607,104.0321 -61.51945,140.29349 -17.67274,24.93204 -64.54785,71.80485 -89.46745,89.46305 -47.423,33.60424 -109.52997,57.43806 -166.75703,63.99373 -17.1852,1.96866 -68.58542,2.37484 -83.7608,0.66191 z"
       id="path902"
       inkscape:connector-curvature="0"
       transform="scale(0.26458333)" />
    <path
       style="opacity:1;fill:#0000ff;fill-opacity:1;stroke:#000007;stroke-width:93.30945587;stroke-miterlimit:4;stroke-dasharray:none;stroke-opacity:0.00529103"
       d="m 361.90632,920.5782 c -15.79818,-2.15686 -54.103,-11.72266 -72.49497,-18.10406 C 267.21692,894.77343 232.76504,878.25283 214.0657,866.34392 177.26947,842.90975 128.56325,795.35532 104.49948,759.36869 86.055291,731.78598 70.233166,699.54749 68.672353,686.36887 l -1.191846,-10.06328 15.893074,-14.71442 c 31.151889,-28.84161 82.668019,-58.92256 112.961469,-65.95969 10.55625,-2.4522 21.66608,-3.09645 44.69333,-2.5917 16.85472,0.36945 31.30319,1.3316 32.10771,2.13813 0.80451,0.80652 0.2887,2.88104 -1.14624,4.61004 -2.30721,2.78 -1.97475,2.9025 2.87409,1.05897 14.44722,-5.49282 26.73429,-1.10378 114.3165,40.83473 112.6556,53.94485 122.67349,57.47361 168.69547,59.42235 31.82066,1.3474 58.17634,-1.18675 79.16653,-7.612 30.14503,-9.22763 69.93387,-32.10803 109.732,-63.10092 16.38895,-12.76294 17.20142,-13.14784 17.80454,-8.43479 0.34756,2.71612 -1.34437,12.01838 -3.75985,20.67169 -11.82292,42.35493 -34.29882,90.26414 -58.05585,123.75079 -15.32338,21.59901 -48.97943,57.49534 -70.13608,74.80465 -50.06569,40.96118 -115.74528,69.62194 -178.35544,77.82943 -20.85482,2.73381 -76.85524,3.68289 -92.36544,1.56535 z"
       id="path904"
       inkscape:connector-curvature="0"
       transform="scale(0.26458333)" />
    <path
       style="opacity:1;fill:#0000ff;fill-opacity:1;stroke:#000007;stroke-width:93.30945587;stroke-miterlimit:4;stroke-dasharray:none;stroke-opacity:0.00529103"
       d="M 362.91647,920.66212 C 297.24457,910.27727 239.73222,886.6594 191.331,850.19927 163.8949,829.53196 122.39049,786.12415 104.53725,759.42519 86.08066,731.82392 70.234026,699.55475 68.675961,686.39933 L 67.487722,676.36651 83.229631,661.6653 c 29.986099,-28.00371 82.521309,-58.86077 112.069539,-65.82512 8.1746,-1.92671 22.98811,-3.09028 39.58047,-3.10897 28.95916,-0.0326 39.83138,1.32006 38.50414,4.79051 -0.57522,1.50411 3.57659,2.30802 12.51618,2.42351 16.02588,0.20703 27.2307,4.77352 112.57764,45.88065 61.02826,29.39412 87.29421,41.02841 107.60882,47.66448 28.39082,9.27429 90.98802,10.37289 122.3898,2.14799 37.27635,-9.7636 80.01768,-34.41065 134.28782,-77.43787 9.44394,-7.48747 -8.9434,53.5307 -28.1057,93.26846 -21.66409,44.92589 -42.81826,73.70079 -81.56753,110.95213 -54.59426,52.48381 -125.41715,86.85455 -199.21608,96.68071 -19.16076,2.5512 -78.27899,3.56535 -90.95826,1.56034 z"
       id="path906"
       inkscape:connector-curvature="0"
       transform="scale(0.26458333)" />
    <path
       style="opacity:1;fill:#0000ff;fill-opacity:1;stroke:#000007;stroke-width:93.30945587;stroke-miterlimit:4;stroke-dasharray:none;stroke-opacity:0.00529103"
       d="M 352.81494,919.00167 C 292.06348,908.59668 234.55798,883.72448 188.1283,847.77163 161.59418,827.22493 121.69145,785.07876 104.66404,759.6148 85.55731,731.04126 69.677162,698.8389 68.463248,686.20545 l -0.947878,-9.86476 15.657398,-14.62228 c 25.743692,-24.04177 65.694822,-49.09078 99.936552,-62.65932 12.44906,-4.93304 15.11935,-5.20739 51.34719,-5.27562 28.82748,-0.0543 38.42256,0.5484 39.05924,2.45341 0.50388,1.50766 4.41152,2.52538 9.69643,2.52538 15.36028,0 28.03176,5.14888 112.68361,45.78739 98.77179,47.41702 112.33011,52.37002 151.52195,55.35257 74.81147,5.69325 121.98406,-10.54458 196.32624,-67.57974 19.37695,-14.86595 20.22907,-15.292 20.83928,-10.41926 1.43135,11.42959 -15.57891,61.26023 -32.44537,95.04689 -20.65267,41.37119 -42.00404,69.8599 -79.04708,105.47096 -54.79154,52.67345 -125.15047,86.81905 -199.21608,96.68071 -26.04501,3.46783 -80.54292,3.41385 -101.05979,-0.10001 z"
       id="path908"
       inkscape:connector-curvature="0"
       transform="scale(0.26458333)" />
  </g>
</svg>
