<?xml version="1.0" encoding="UTF-8" standalone="no"?>
<!-- Created with Inkscape (http://www.inkscape.org/) -->

<svg
   xmlns:osb="http://www.openswatchbook.org/uri/2009/osb"
   xmlns:dc="http://purl.org/dc/elements/1.1/"
   xmlns:cc="http://creativecommons.org/ns#"
   xmlns:rdf="http://www.w3.org/1999/02/22-rdf-syntax-ns#"
   xmlns:svg="http://www.w3.org/2000/svg"
   xmlns="http://www.w3.org/2000/svg"
   xmlns:sodipodi="http://sodipodi.sourceforge.net/DTD/sodipodi-0.dtd"
   xmlns:inkscape="http://www.inkscape.org/namespaces/inkscape"
   width="210mm"
   height="297mm"
   viewBox="0 0 210 297"
   version="1.1"
   id="svg8"
   inkscape:version="0.92.3 (2405546, 2018-03-11)"
   sodipodi:docname="oko.svg">
  <defs
     id="defs2">
    <linearGradient
       id="linearGradient823"
       osb:paint="solid">
      <stop
         style="stop-color:#000000;stop-opacity:1;"
         offset="0"
         id="stop821" />
    </linearGradient>
  </defs>
  <sodipodi:namedview
     id="base"
     pagecolor="#ffffff"
     bordercolor="#666666"
     borderopacity="1.0"
     inkscape:pageopacity="0.0"
     inkscape:pageshadow="2"
     inkscape:zoom="0.49497475"
     inkscape:cx="397.48774"
     inkscape:cy="637.10379"
     inkscape:document-units="mm"
     inkscape:current-layer="layer1"
     showgrid="false"
     inkscape:window-width="1920"
     inkscape:window-height="1000"
     inkscape:window-x="0"
     inkscape:window-y="0"
     inkscape:window-maximized="1" />
  <metadata
     id="metadata5">
    <rdf:RDF>
      <cc:Work
         rdf:about="">
        <dc:format>image/svg+xml</dc:format>
        <dc:type
           rdf:resource="http://purl.org/dc/dcmitype/StillImage" />
        <dc:title></dc:title>
      </cc:Work>
    </rdf:RDF>
  </metadata>
  <g
     inkscape:label="Layer 1"
     inkscape:groupmode="layer"
     id="layer1">
    <g
       id="g892">
      <path
         transform="scale(0.26458333)"
         id="path819"
         d="M 382.21289 282.80469 A 364.34326 236.20843 0 0 0 37.599609 481.73828 A 364.34326 236.20843 0 0 0 407.44141 663.5293 A 364.34326 236.20843 0 0 0 751.75586 464.64648 A 364.34326 236.20843 0 0 0 382.21289 282.80469 z "
         style="opacity:1;fill:#000000;fill-opacity:0.03703703;stroke:#000000;stroke-width:46.18582735;stroke-miterlimit:4;stroke-dasharray:none;stroke-opacity:1" />
      <path
         transform="rotate(90)"
         d="m 93.183471,-80.847726 a 39.464161,38.667393 0 0 1 2.511534,-49.701354 39.464161,38.667393 0 0 1 50.402105,-6.11973 39.464161,38.667393 0 0 1 14.81724,47.597332 39.464161,38.667393 0 0 1 -45.3078,22.484181"
         sodipodi:open="true"
         sodipodi:end="1.8009948"
         sodipodi:start="2.492048"
         sodipodi:ry="38.667393"
         sodipodi:rx="39.464161"
         sodipodi:cy="-104.23469"
         sodipodi:cx="124.61112"
         sodipodi:type="arc"
         id="path877"
         style="opacity:1;fill:#000000;fill-opacity:0.03703703;stroke:#000000;stroke-width:12.94245052;stroke-miterlimit:4;stroke-dasharray:none;stroke-opacity:1" />
      <path
         transform="rotate(90)"
         d="m 108.53556,-96.962264 a 18.923508,14.354811 0 0 1 5.42346,-16.819106 18.923508,14.354811 0 0 1 22.8109,-0.62527 18.923508,14.354811 0 0 1 7.00962,16.478298 18.923508,14.354811 0 0 1 -18.99031,9.606767 l 1.12033,-14.329635 z"
         sodipodi:end="1.6300342"
         sodipodi:start="2.7340993"
         sodipodi:ry="14.354811"
         sodipodi:rx="18.923508"
         sodipodi:cy="-102.65121"
         sodipodi:cx="125.90956"
         sodipodi:type="arc"
         id="path879"
         style="opacity:1;fill:#000000;fill-opacity:1;stroke:#000000;stroke-width:11.97495079;stroke-miterlimit:4;stroke-dasharray:none;stroke-opacity:1" />
    </g>
  </g>
</svg>
